<svg xmlns="http://www.w3.org/2000/svg" width="48" height="48" viewBox="0 0 48 48" version="1.1"><path d="M 22.250 14.662 C 19.192 15.745, 18 16.721, 18 18.142 C 18 19.229, 17.550 19.840, 17 19.500 C 15.495 18.570, 15.778 19.796, 18.125 24.364 C 19.294 26.639, 20.580 29.175, 20.984 30 C 21.388 30.825, 22.745 31.500, 24 31.500 C 25.255 31.500, 26.612 30.825, 27.016 30 C 27.420 29.175, 28.706 26.639, 29.875 24.364 C 32.222 19.796, 32.505 18.570, 31 19.500 C 30.441 19.845, 30 19.077, 30 17.759 C 30 15.568, 28.317 12.897, 27.050 13.079 C 26.747 13.122, 24.587 13.835, 22.250 14.662 M 20 19 C 20 19.550, 20.450 20, 21 20 C 21.550 20, 22 19.550, 22 19 C 22 18.450, 21.550 18, 21 18 C 20.450 18, 20 18.450, 20 19 M 26 19 C 26 19.550, 26.450 20, 27 20 C 27.550 20, 28 19.550, 28 19 C 28 18.450, 27.550 18, 27 18 C 26.450 18, 26 18.450, 26 19 M 8.337 23.170 C 5.196 24.706, 4.776 27.778, 7.249 31.123 C 8.419 32.706, 9.657 34, 10 34 C 10.343 34, 11.584 32.702, 12.756 31.116 C 14.384 28.914, 14.707 27.553, 14.123 25.366 C 13.276 22.200, 11.610 21.568, 8.337 23.170 M 36.337 23.170 C 33.196 24.706, 32.776 27.778, 35.249 31.123 C 36.419 32.706, 37.657 34, 38 34 C 38.343 34, 39.584 32.702, 40.756 31.116 C 42.384 28.914, 42.707 27.553, 42.123 25.366 C 41.276 22.200, 39.610 21.568, 36.337 23.170" stroke="none" fill="#f3c428" fill-rule="evenodd"/><path d="M 18.073 10.635 C 15.901 13.396, 15.290 18.443, 17 19.500 C 17.550 19.840, 18 19.234, 18 18.153 C 18 16.708, 19.233 15.768, 22.656 14.601 C 27.964 12.793, 30 13.647, 30 17.681 C 30 19.051, 30.438 19.847, 31 19.500 C 31.550 19.160, 32 17.364, 32 15.509 C 32 8.783, 22.222 5.360, 18.073 10.635 M 20 19 C 20 19.550, 20.450 20, 21 20 C 21.550 20, 22 19.550, 22 19 C 22 18.450, 21.550 18, 21 18 C 20.450 18, 20 18.450, 20 19 M 26 19 C 26 19.550, 26.450 20, 27 20 C 27.550 20, 28 19.550, 28 19 C 28 18.450, 27.550 18, 27 18 C 26.450 18, 26 18.450, 26 19 M 6.200 20.200 C 5.540 20.860, 5.052 22.773, 5.116 24.450 C 5.180 26.127, 5.429 26.757, 5.670 25.849 C 6.208 23.824, 11.769 21.350, 12.959 22.606 C 13.425 23.098, 14.022 24.400, 14.287 25.500 C 14.602 26.808, 14.808 26.388, 14.884 24.285 C 14.965 22.051, 14.410 20.755, 13.066 20.035 C 10.493 18.658, 7.674 18.726, 6.200 20.200 M 34.200 20.200 C 33.540 20.860, 33.052 22.773, 33.116 24.450 C 33.180 26.127, 33.429 26.757, 33.670 25.849 C 34.208 23.824, 39.769 21.350, 40.959 22.606 C 41.425 23.098, 42.022 24.400, 42.287 25.500 C 42.602 26.808, 42.808 26.388, 42.884 24.285 C 42.965 22.051, 42.410 20.755, 41.066 20.035 C 38.493 18.658, 35.674 18.726, 34.200 20.200 M 14.667 30.632 C 10.817 33.631, 9.755 34.041, 8.512 33.010 C 6.534 31.369, 2 34.163, 2 37.023 C 2 38.932, 2.752 39, 24 39 C 45.248 39, 46 38.932, 46 37.023 C 46 34.163, 41.466 31.369, 39.488 33.010 C 38.245 34.041, 37.183 33.631, 33.333 30.632 L 28.681 27.007 27.561 29.254 C 26.858 30.663, 25.531 31.500, 24 31.500 C 22.469 31.500, 21.142 30.663, 20.439 29.254 L 19.319 27.007 14.667 30.632" stroke="none" fill="#576466" fill-rule="evenodd"/></svg>