<svg xmlns="http://www.w3.org/2000/svg" width="96" height="96" viewBox="0 0 96 96" version="1.1"><path d="M 44.619 8 L 41.972 12 48 12 L 54.028 12 51.381 8 C 49.925 5.800, 48.404 4, 48 4 C 47.596 4, 46.075 5.800, 44.619 8 M 45.040 25.452 C 42.383 28.653, 46.285 33.570, 49.750 31.388 C 51.972 29.989, 52.515 27.325, 50.960 25.452 C 49.416 23.591, 46.584 23.591, 45.040 25.452 M 30.663 42.763 C 26.150 49.310, 26 49.762, 26 56.870 C 26 62.327, 26.321 64.094, 27.250 63.748 C 27.938 63.492, 30.188 62.679, 32.250 61.940 L 36 60.598 36 48.299 C 36 41.535, 35.848 36, 35.663 36 C 35.478 36, 33.228 39.043, 30.663 42.763 M 45.040 37.452 C 43.485 39.325, 44.028 41.989, 46.250 43.388 C 49.715 45.570, 53.617 40.653, 50.960 37.452 C 49.416 35.591, 46.584 35.591, 45.040 37.452 M 60 48.132 L 60 60.598 63.750 61.940 C 65.813 62.679, 68.063 63.492, 68.750 63.748 C 69.679 64.095, 70 62.313, 70 56.802 C 70 49.648, 69.846 49.172, 65.568 43.097 C 63.131 39.635, 60.881 36.547, 60.568 36.235 C 60.256 35.922, 60 41.276, 60 48.132 M 45.040 49.452 C 43.485 51.325, 44.028 53.989, 46.250 55.388 C 49.715 57.570, 53.617 52.653, 50.960 49.452 C 49.416 47.591, 46.584 47.591, 45.040 49.452 M 37.694 66.250 C 38.818 67.487, 40.004 69.634, 40.330 71.020 C 41.021 73.958, 46.810 83, 48 83 C 49.190 83, 54.979 73.958, 55.670 71.020 C 55.996 69.634, 57.182 67.487, 58.306 66.250 L 60.349 64 48 64 L 35.651 64 37.694 66.250 M 44.022 69.750 C 44.034 70.713, 44.934 72.625, 46.022 74 L 48 76.500 49.978 74 C 53.255 69.857, 52.643 68, 48 68 C 44.849 68, 44.005 68.371, 44.022 69.750" stroke="none" fill="#6c49b9" fill-rule="evenodd"/><path d="M 41.280 13.206 C 40.709 13.918, 39.288 16.395, 38.121 18.710 C 36.165 22.592, 36 24.520, 36 43.460 L 36 64 48 64 L 60 64 59.977 43.250 C 59.953 22.566, 59.945 22.484, 57.227 17.500 L 54.500 12.500 48.409 12.206 C 44.320 12.009, 41.976 12.338, 41.280 13.206 M 45.040 25.452 C 42.383 28.653, 46.285 33.570, 49.750 31.388 C 51.972 29.989, 52.515 27.325, 50.960 25.452 C 49.416 23.591, 46.584 23.591, 45.040 25.452 M 45.040 37.452 C 43.485 39.325, 44.028 41.989, 46.250 43.388 C 49.715 45.570, 53.617 40.653, 50.960 37.452 C 49.416 35.591, 46.584 35.591, 45.040 37.452 M 45.040 49.452 C 43.485 51.325, 44.028 53.989, 46.250 55.388 C 49.715 57.570, 53.617 52.653, 50.960 49.452 C 49.416 47.591, 46.584 47.591, 45.040 49.452 M 44.022 69.750 C 44.034 70.713, 44.934 72.625, 46.022 74 L 48 76.500 49.978 74 C 53.255 69.857, 52.643 68, 48 68 C 44.849 68, 44.005 68.371, 44.022 69.750 M 37 71 C 36.175 71.533, 33.813 71.976, 31.750 71.985 C 29.349 71.994, 27.281 72.719, 26 74 C 21.833 78.167, 24.831 86, 30.592 86 C 32.018 86, 34.267 86.851, 35.589 87.891 C 37.583 89.460, 39.699 89.783, 48 89.783 C 56.301 89.783, 58.417 89.460, 60.411 87.891 C 61.733 86.851, 63.982 86, 65.408 86 C 71.227 86, 74.163 78.163, 69.929 73.929 C 68.538 72.538, 66.816 71.944, 64.679 72.118 C 62.931 72.260, 60.449 71.805, 59.164 71.107 C 57.880 70.409, 56.698 69.987, 56.537 70.169 C 56.377 70.351, 55.306 72.300, 54.157 74.500 C 53.008 76.700, 51.163 79.625, 50.057 81 L 48.045 83.500 45.585 80.500 C 44.232 78.850, 42.354 75.813, 41.411 73.750 C 39.562 69.707, 39.276 69.529, 37 71" stroke="none" fill="#e3c6e2" fill-rule="evenodd"/></svg>