<svg xmlns="http://www.w3.org/2000/svg" width="48" height="48" viewBox="0 0 48 48" version="1.1"><path d="M 12.414 6.363 C 12.099 7.184, 11.990 8.900, 12.171 10.177 C 12.444 12.102, 13.099 12.500, 16 12.500 C 19.333 12.500, 19.500 12.333, 19.500 9 C 19.500 5.781, 19.239 5.475, 16.243 5.186 C 14.059 4.976, 12.798 5.363, 12.414 6.363 M 30.410 10.375 C 29.211 13.498, 30.424 15.500, 33.514 15.500 C 36.165 15.500, 36.500 15.164, 36.500 12.500 C 36.500 9.969, 36.069 9.450, 33.744 9.183 C 31.986 8.981, 30.779 9.412, 30.410 10.375 M 8 14.500 C 8 14.775, 8.225 15, 8.500 15 C 8.775 15, 9 14.775, 9 14.500 C 9 14.225, 8.775 14, 8.500 14 C 8.225 14, 8 14.225, 8 14.500 M 6 20.500 C 6 20.775, 6.225 21, 6.500 21 C 6.775 21, 7 20.775, 7 20.500 C 7 20.225, 6.775 20, 6.500 20 C 6.225 20, 6 20.225, 6 20.500 M 6 26.500 C 6 26.775, 6.225 27, 6.500 27 C 6.775 27, 7 26.775, 7 26.500 C 7 26.225, 6.775 26, 6.500 26 C 6.225 26, 6 26.225, 6 26.500" stroke="none" fill="#fcb44c" fill-rule="evenodd"/><path d="M 8.350 14.739 C 7.718 15.158, 6.919 17.274, 6.575 19.442 C 6.231 21.610, 5.740 23.593, 5.484 23.850 C 4.610 24.724, 7.239 27, 9.122 27 C 10.650 27, 11 27.755, 11 31.050 C 11 33.277, 10.307 36.440, 9.459 38.079 C 8.612 39.718, 8.188 41.496, 8.518 42.029 C 9.810 44.119, 12.057 42.808, 14.123 38.759 L 16.286 34.519 18.340 38.759 C 20.339 42.886, 22.227 44.059, 23.515 41.975 C 23.864 41.411, 22.540 37.695, 20.574 33.716 C 16.354 25.176, 16.136 23.839, 19.471 26.972 C 21.261 28.654, 22.294 29.009, 23.221 28.262 C 27.058 25.168, 31.112 32.218, 28.353 37.189 C 26.475 40.575, 26.688 43, 28.864 43 C 30.089 43, 31.236 41.714, 32.207 39.250 L 33.685 35.500 35.528 39.250 C 37.319 42.896, 39.267 43.994, 40.475 42.040 C 40.802 41.512, 39.703 38.374, 38.034 35.068 C 34.508 28.082, 34.150 25.921, 36.937 28.443 C 39.834 31.065, 41.438 29.433, 39.161 26.180 C 38.129 24.706, 36.848 22.150, 36.314 20.500 C 35.443 17.808, 34.867 17.469, 30.700 17.196 L 26.056 16.893 24.890 21.523 C 23.831 25.727, 23.580 26.008, 22.157 24.585 C 21.295 23.723, 19.884 21.102, 19.022 18.759 C 17.568 14.809, 17.166 14.481, 13.477 14.239 C 11.290 14.096, 8.983 14.321, 8.350 14.739" stroke="none" fill="#5c7e89" fill-rule="evenodd"/></svg>